# File exported by Houdini 16.5.323 (www.sidefx.com)
# 12 points
# 36 vertices
# 8 primitives
# Bounds: [-0.866025448, -1, -0.100000001] to [0.866025448, 1, 0]
g 
v 6.12323426e-17 1 0
v -0.866025448 0.49999997 0
v -0.866025388 -0.50000006 0
v 8.74227766e-08 -1 0
v 0.866025448 -0.499999911 0
v 0.866025448 0.499999911 0
v 6.12323426e-17 1 -0.100000001
v -0.866025448 0.49999997 -0.100000001
v -0.866025388 -0.50000006 -0.100000001
v 8.74227766e-08 -1 -0.100000001
v 0.866025448 -0.499999911 -0.100000001
v 0.866025448 0.499999911 -0.100000001
vn -0 -0 1
vn -0 -0 1
vn -0 -0 1
vn 0 -0 1
vn -0 0 1
vn -0 -0 1
vn -0 -0 -1
vn -0 0 -1
vn -0 -0 -1
vn 0 -0 -1
vn -0 -0 -1
vn -0 -0 -1
vn 4.38156889e-08 1 0
vn 4.38156889e-08 1 0
vn -0.866025388 0.49999997 0
vn -0.866025388 0.49999997 0
vn -0.866025388 0.49999997 0
vn -0.866025388 0.49999997 0
vn -0.866025388 -0.500000119 0
vn -0.866025388 -0.500000119 0
vn -0.866025388 -0.500000119 0
vn -0.866025388 -0.500000119 0
vn 1.09539222e-07 -1 -0
vn 1.09539222e-07 -1 -0
vn 1.09539222e-07 -1 -0
vn 1.09539222e-07 -1 -0
vn 0.866025448 -0.49999997 -0
vn 0.866025448 -0.49999997 -0
vn 0.866025448 -0.49999997 -0
vn 0.866025448 -0.49999997 -0
vn 0.866025388 0.49999997 0
vn 0.866025388 0.49999997 -0
vn 0.866025388 0.49999997 -0
vn 0.866025388 0.49999997 0
vn 4.38156889e-08 1 0
vn 4.38156889e-08 1 0
g 
f 1//1 2//2 3//3 4//4 5//5 6//6
f 7//7 12//8 11//9 10//10 9//11 8//12
f 1//13 7//14 8//15 2//16
f 2//17 8//18 9//19 3//20
f 3//21 9//22 10//23 4//24
f 4//25 10//26 11//27 5//28
f 5//29 11//30 12//31 6//32
f 6//33 12//34 7//35 1//36
