# File exported by Houdini 16.5.323 (www.sidefx.com)
# 8 points
# 30 vertices
# 9 primitives
# Bounds: [-1, -5.16191392e-08, -0.866025388] to [1, 1, 0.866025388]
g 
v 1 0 0
v 0.49999997 5.16191392e-08 -0.866025388
v -0.50000006 5.16191356e-08 -0.866025329
v -1 -5.21080354e-15 8.74227695e-08
v -0.499999911 -5.16191392e-08 0.866025388
v 0.499999911 -5.16191392e-08 0.866025388
v 0 1 0
v -1.1920929e-07 0 0
vn -0.707106769 -0.707106769 -7.98480499e-08
vn -0.353553355 -0.707106829 0.612372339
vn -0.353553355 -0.707106769 0.612372398
vn -0.353553355 -0.707106769 0.612372398
vn -0.353553355 -0.707106829 0.612372339
vn 0.353553444 -0.707106829 0.612372398
vn 0.353553444 -0.707106829 0.612372398
vn 0.707106769 -0.707106769 2.22697274e-08
vn 0.707106769 -0.707106769 -7.98480499e-08
vn 0.707106769 -0.707106769 -7.98480499e-08
vn 0.707106769 -0.707106769 2.22697274e-08
vn 0.353553355 -0.707106769 -0.612372518
vn 0.353553355 -0.707106769 -0.612372518
vn -0.353553414 -0.707106769 -0.612372398
vn -0.353553385 -0.707106769 -0.612372518
vn -0.353553385 -0.707106769 -0.612372518
vn -0.353553414 -0.707106769 -0.612372398
vn -0.707106769 -0.707106769 -7.98480499e-08
vn 1.2225866e-22 1 5.96046519e-08
vn 0 1 5.96046519e-08
vn 0 1 5.96046448e-08
vn -0 1 5.96046519e-08
vn 0 1 5.96046519e-08
vn -0 1 5.9604659e-08
vn 0 1 5.96046519e-08
vn 0 1 5.96046448e-08
vn 1.2225866e-22 1 5.96046519e-08
vn 2.44517371e-22 1 5.96046519e-08
vn -0 1 5.9604659e-08
vn 0 1 5.96046519e-08
g 
f 1//1 7//2 2//3
f 2//4 7//5 3//6
f 3//7 7//8 4//9
f 4//10 7//11 5//12
f 5//13 7//14 6//15
f 6//16 7//17 1//18
f 2//19 8//20 6//21 1//22
f 8//23 4//24 5//25 6//26
f 2//27 3//28 4//29 8//30
